<svg xmlns="http://www.w3.org/2000/svg" height="24" viewBox="0 0 24 24" fill="#e3e3e3"><path d="M8 22a.97.97 0 0 1-.71-.29A.97.97 0 0 1 7 21V5c0-.28.1-.52.29-.71.19-.2.43-.29.71-.29h2V3c0-.28.1-.52.29-.71.19-.2.43-.29.71-.29h2c.28 0 .52.1.71.29.2.19.29.43.29.71v1h2c.28 0 .52.1.71.29.2.19.29.43.29.71v6c0 .28-.1.52-.29.71-.19.2-.43.29-.71.29a.97.97 0 0 1-.71-.29A.97.97 0 0 1 15 11V6H9v14h1.8c.5 0 1 .5 1 1s-.5 1-1 1H8Zm8.5-3h-1.55a.46.46 0 0 1-.44-.26.46.46 0 0 1 .04-.51l2.5-3.58c.08-.1.18-.13.29-.1.1.03.16.12.16.25V17h1.55c.2 0 .35.09.44.26.09.18.08.35-.04.51l-2.5 3.58c-.08.1-.18.13-.29.1-.1-.03-.16-.12-.16-.25V19Z"/></svg>